<svg width="24" height="18" viewBox="0 0 24 18" fill="none" xmlns="http://www.w3.org/2000/svg">
<path d="M23.5432 13.7717L22.2531 4.83504C21.9216 2.53671 19.9213 0.833374 17.5658 0.833374H6.84199C4.48654 0.833374 2.48618 2.53671 2.15476 4.83504L0.864586 13.7717C0.604184 15.5684 2.01272 17.1667 3.84737 17.1667C4.65225 17.1667 5.40978 16.8517 5.97793 16.2917L8.65297 13.6667H15.7548L18.418 16.2917C18.9862 16.8517 19.7556 17.1667 20.5486 17.1667C22.3951 17.1667 23.8036 15.5684 23.5432 13.7717ZM11.0203 7.83337H8.65297V10.1667H7.46933V7.83337H5.10204V6.66671H7.46933V4.33337H8.65297V6.66671H11.0203V7.83337ZM15.7548 6.66671C15.1038 6.66671 14.5712 6.14171 14.5712 5.50004C14.5712 4.85837 15.1038 4.33337 15.7548 4.33337C16.4058 4.33337 16.9385 4.85837 16.9385 5.50004C16.9385 6.14171 16.4058 6.66671 15.7548 6.66671ZM18.1221 10.1667C17.4711 10.1667 16.9385 9.64171 16.9385 9.00004C16.9385 8.35838 17.4711 7.83337 18.1221 7.83337C18.7731 7.83337 19.3058 8.35838 19.3058 9.00004C19.3058 9.64171 18.7731 10.1667 18.1221 10.1667Z" fill="#2A7AE4"/>
</svg>
